<svg xmlns="http://www.w3.org/2000/svg" version="1.1" style="width: 488px; height: 102px;">
<g transform="translate(-6.5,-199.5)">
<path d="M91.409627 274.091743l5.400909 13.030798c0 0,-49.727221 -0.654138,-78.022451 14.2245l23.081936 -28.795387c0 0,-24.805064 -4.257891,-34.534418 -2.548607c10.353406 -7.881629,27.265345 -21.948922,63.393823 -30.600594" stroke-miterlimit="10" stroke-linejoin="round" stroke-linecap="round"/>
<path d="M421.906965 250.04585c17.071611 0.823334,43.179333 3.609082,61.020031 12.603144l-23.572927 -28.39571c0 0,24.72922 -4.682881,34.485186 -3.142793c-11.028021 -8.101451,-29.428902 -22.918805,-69.692889 -30.701846l-5.995688 15.197048" stroke-miterlimit="10" stroke-linejoin="round" stroke-linecap="round"/>
<path d="M422.255583 245.160466c1.158953 -11.951671,5.567235 -23.082672,1.788328 -27.115412c-5.7788 -6.169679,-99.312067 -16.786429,-176.76369 -16.120301c-0.145036 0.001333,-0.292732 0.002664,-0.437768 0.003997c-0.146366 0,-0.294063 0.001333,-0.439098 0.001333c-77.452954 0.66746,-170.790622 12.88958,-176.462974 19.156513c-3.708385 4.095355,0.891503 15.149086,2.254038 27.079441c1.59406 13.947391,-3.109615 22.0182,0.584134 26.864947c10.156477 4.079368,70.579069 -15.338266,174.111802 -16.229545c0.129068 0,0.256806 0,0.385874 -0.001333l0 0c0.017298 0,0.034596 -0.001333,0.053224 0.001333c0.015967 -0.001333,0.033265 -0.001333,0.050563 -0.001333l0 0c0.129068 -0.002664,0.258137 -0.005329,0.385874 -0.005329c103.531403 -0.888615,164.278661 17.488528,174.364616 13.234633C425.743088 267.121378,420.8997 259.13317,422.255583 245.160466z" stroke-miterlimit="10" stroke-linejoin="round" stroke-linecap="round"/>
</g>
</svg>